<?xml version="1.0" encoding="utf-8"?>
<!-- Generator: Adobe Illustrator 16.0.0, SVG Export Plug-In . SVG Version: 6.00 Build 0)  -->
<!DOCTYPE svg PUBLIC "-//W3C//DTD SVG 1.1//EN" "http://www.w3.org/Graphics/SVG/1.1/DTD/svg11.dtd">
<svg version="1.1" id="Layer_1" xmlns="http://www.w3.org/2000/svg" xmlns:xlink="http://www.w3.org/1999/xlink" x="0px" y="0px"
	 width="52.167px" height="51.25px" viewBox="0 0 52.167 51.25" enable-background="new 0 0 52.167 51.25" xml:space="preserve">
<g>
	<path fill="#FFFFFF" d="M51.664,7.927c-0.008-0.054-0.012-0.109-0.031-0.16c-0.016-0.047-0.039-0.09-0.062-0.133
		c-0.027-0.047-0.055-0.089-0.09-0.132c-0.035-0.036-0.07-0.067-0.109-0.098c-0.031-0.024-0.051-0.051-0.082-0.07L40.183,0.201
		c-0.02-0.012-0.039-0.024-0.059-0.035L40.074,0.13c-0.008-0.003-0.016-0.003-0.023-0.007c-0.035-0.016-0.066-0.032-0.102-0.043
		c-0.039-0.016-0.082-0.024-0.125-0.032c-0.031-0.007-0.062-0.011-0.094-0.015c-0.016,0-0.031-0.008-0.047-0.008
		s-0.027,0.008-0.043,0.008c-0.035,0.004-0.062,0.008-0.094,0.015C39.5,0.052,39.46,0.064,39.417,0.081
		c-0.035,0.011-0.066,0.027-0.098,0.043c-0.008,0.004-0.016,0.004-0.027,0.007L26.085,7.119L12.875,0.13
		c-0.008-0.003-0.02-0.003-0.028-0.007c-0.03-0.016-0.062-0.032-0.097-0.043c-0.043-0.016-0.082-0.024-0.125-0.032
		c-0.036-0.007-0.062-0.011-0.094-0.015c-0.017,0-0.031-0.008-0.047-0.008c-0.017,0-0.031,0.008-0.047,0.008
		c-0.031,0.004-0.059,0.008-0.095,0.015c-0.043,0.004-0.082,0.016-0.125,0.032c-0.034,0.011-0.065,0.027-0.097,0.043
		c-0.008,0.004-0.02,0.004-0.028,0.007l-0.05,0.032c-0.02,0.015-0.039,0.023-0.059,0.039L0.881,7.334
		C0.846,7.354,0.828,7.38,0.799,7.404C0.756,7.435,0.721,7.466,0.691,7.502C0.652,7.545,0.625,7.587,0.596,7.634
		C0.574,7.677,0.549,7.72,0.535,7.767C0.519,7.818,0.51,7.874,0.503,7.927C0.5,7.962,0.484,7.99,0.484,8.025v42.398
		c0,0.02,0.008,0.031,0.008,0.051c0.004,0.051,0.019,0.102,0.031,0.156c0.016,0.051,0.026,0.102,0.051,0.148
		c0.008,0.016,0.008,0.031,0.015,0.047c0.021,0.031,0.051,0.051,0.071,0.078c0.031,0.043,0.062,0.082,0.101,0.113
		c0.043,0.039,0.091,0.066,0.138,0.098c0.039,0.02,0.078,0.043,0.121,0.055c0.055,0.023,0.112,0.031,0.172,0.035
		c0.03,0.004,0.059,0.02,0.094,0.02c0.015,0,0.027-0.008,0.043-0.008c0.047-0.004,0.094-0.016,0.136-0.027
		c0.067-0.016,0.129-0.031,0.185-0.062c0.008-0.004,0.016-0.004,0.026-0.008l10.849-6.965l13.172,6.965
		c0.008,0.004,0.016,0.004,0.022,0.008c0.036,0.02,0.067,0.035,0.103,0.047c0.039,0.012,0.082,0.023,0.125,0.031
		c0.031,0.004,0.062,0.012,0.094,0.012c0.015,0,0.031,0.008,0.047,0.008s0.027-0.008,0.043-0.008
		c0.031-0.004,0.062-0.008,0.093-0.012c0.043-0.008,0.086-0.02,0.13-0.031c0.034-0.016,0.066-0.027,0.098-0.047
		c0.008-0.004,0.015-0.004,0.022-0.008l13.173-6.965l10.852,6.965c0.008,0.004,0.016,0.004,0.023,0.008
		c0.059,0.031,0.117,0.047,0.184,0.062c0.047,0.012,0.09,0.023,0.137,0.027c0.016,0,0.027,0.008,0.043,0.008
		c0.035,0,0.062-0.016,0.094-0.02c0.062-0.004,0.117-0.012,0.172-0.035c0.043-0.012,0.082-0.035,0.121-0.055
		c0.051-0.027,0.094-0.059,0.141-0.098c0.035-0.031,0.066-0.07,0.098-0.113c0.023-0.027,0.051-0.047,0.07-0.078
		c0.008-0.016,0.008-0.031,0.016-0.047c0.023-0.047,0.035-0.098,0.051-0.148c0.012-0.055,0.027-0.105,0.031-0.156
		c0-0.02,0.008-0.031,0.008-0.051V8.025C51.683,7.99,51.667,7.962,51.664,7.927L51.664,7.927z M11.682,42.795l-9.597,6.164V8.456
		l9.597-6.164V42.795z M25.285,23.65l-2.164,2.164c-0.325,0.324-0.325,0.852,0,1.176c0.324,0.324,0.851,0.324,1.175,0l0.989-0.988
		v23.094l-12-6.348V2.154l12,6.348V23.65z M38.882,42.748l-12.001,6.348V24.084c0.004-0.024,0.004-0.047,0-0.067V8.502l12.001-6.348
		V42.748z M50.085,20.427l-1.781-1.777c-0.324-0.324-0.848-0.324-1.172,0c-0.324,0.32-0.324,0.848,0,1.172l2.344,2.344
		c0.168,0.168,0.387,0.242,0.605,0.238v26.555l-9.598-6.164V2.292l9.598,6.164v11.972H50.085z M15.941,34.166
		c0.328,0.328,0.854,0.328,1.184,0l1.773-1.773l1.773,1.773c0.324,0.328,0.855,0.328,1.184,0c0.323-0.324,0.323-0.855,0-1.18
		l-1.773-1.773l1.77-1.773c0.327-0.328,0.327-0.855,0-1.184c-0.324-0.324-0.855-0.324-1.18,0l-1.773,1.773l-1.773-1.773
		c-0.329-0.324-0.855-0.324-1.184,0c-0.324,0.328-0.324,0.855,0,1.184l1.772,1.773l-1.772,1.773
		C15.617,33.311,15.617,33.842,15.941,34.166L15.941,34.166z M29.898,22.189l2.352-2.352c0.324-0.324,0.324-0.851,0-1.175
		c-0.328-0.325-0.852-0.325-1.176,0l-2.352,2.351c-0.324,0.324-0.324,0.852,0,1.176C29.046,22.513,29.574,22.513,29.898,22.189
		L29.898,22.189z M34.695,17.388l2.352-2.351c0.328-0.325,0.328-0.852,0-1.176c-0.324-0.324-0.852-0.324-1.172,0l-2.352,2.351
		c-0.328,0.325-0.328,0.852,0,1.176C33.847,17.712,34.375,17.712,34.695,17.388L34.695,17.388z M44.691,17.377
		c0.324,0.324,0.848,0.324,1.172,0c0.324-0.325,0.324-0.848,0-1.172l-2.344-2.344c-0.324-0.324-0.848-0.324-1.172,0
		c-0.324,0.324-0.324,0.851,0,1.172L44.691,17.377z M44.691,17.377"/>
</g>
</svg>
