<?xml version="1.0" encoding="utf-8"?>
<!-- Generator: Adobe Illustrator 16.0.0, SVG Export Plug-In . SVG Version: 6.00 Build 0)  -->
<!DOCTYPE svg PUBLIC "-//W3C//DTD SVG 1.1//EN" "http://www.w3.org/Graphics/SVG/1.1/DTD/svg11.dtd">
<svg version="1.1" xmlns="http://www.w3.org/2000/svg" xmlns:xlink="http://www.w3.org/1999/xlink" x="0px" y="0px"
	 width="595.279px" height="841.891px" viewBox="0 0 595.279 841.891" enable-background="new 0 0 595.279 841.891"
	 xml:space="preserve">
<g id="Layer_1" display="none">
	<path display="inline" d="M474.438,426.303c-2.381-4.167-6.548-6.548-11.31-6.548h-85.125
		c36.907-54.17,73.814-119.651,73.814-162.511c0-85.125-69.053-154.773-154.772-154.773c-84.53,0-154.178,69.648-154.178,154.773
		c0,42.265,37.503,108.341,73.814,162.511h-83.935c-4.762,0-9.524,2.381-11.311,6.548L41.074,570.956
		c-2.381,4.167-2.381,8.929,0,13.096c2.977,4.167,7.144,6.548,11.905,6.548H542.3l0,0c7.144,0,13.097-5.952,13.097-13.096
		c0-2.977-1.191-5.953-2.977-8.334L474.438,426.303z M169.655,257.243c0-70.243,57.147-127.985,127.985-127.985
		s127.985,57.147,127.985,127.985c0,38.098-40.479,105.96-79.768,162.511c-6.548,8.929-13.097,17.859-19.049,26.788
		c-10.715,14.287-20.835,27.383-29.169,38.098c-8.334-10.715-18.453-23.216-29.169-38.098c-5.952-8.334-12.5-17.263-19.049-26.788
		C210.134,363.203,169.655,295.341,169.655,257.243z M75.601,563.812l64.886-117.865h95.244
		c26.788,37.502,49.408,64.885,51.79,67.267c2.381,2.976,6.548,4.762,10.119,4.762c4.167,0,7.738-1.786,10.12-4.762
		c2.381-2.977,25.001-30.359,51.789-67.267h95.245l64.886,117.865H75.601z"/>
	<path display="inline" d="M363.716,261.41c0-36.312-29.764-66.076-66.076-66.076c-36.312,0-66.076,29.764-66.076,66.076
		c0,36.312,29.765,66.076,66.076,66.076C333.952,326.891,363.716,297.722,363.716,261.41z M258.352,261.41
		c0-22.025,17.858-39.289,39.288-39.289c22.025,0,39.288,17.858,39.288,39.289c0,21.43-17.858,39.288-39.288,39.288
		C275.615,300.698,258.352,282.84,258.352,261.41z"/>
</g>
<g id="Layer_2">
	<polygon fill="none" stroke="#FFFFFF" stroke-width="23" stroke-miterlimit="10" points="57.14,576.445 539.14,576.445 
		460.14,428.445 130.14,429.445 	"/>
	<path fill="#FFFFFF" d="M298.14,142.445c-79.529,0-144,64.471-144,144s143,237,143,237s145-157.471,145-237
		S377.669,142.445,298.14,142.445z M298.14,341.445c-30.375,0-55-24.625-55-55s24.625-55,55-55c30.376,0,55,24.625,55,55
		S328.516,341.445,298.14,341.445z"/>
	<path display="none" fill="#FFFFFF" stroke="#FFFFFF" stroke-width="12" stroke-miterlimit="10" d="M82.769,582.898
		c0,0,53.999-23.424,62.554-27.523c8.555-4.101,23.892-58.439,37.795-44.062s45.871-27.944,57.652-30.435
		s55.743,11.801,55.743,11.801"/>
</g>
</svg>
