<?xml version="1.0" standalone="no"?>
<!DOCTYPE svg PUBLIC "-//W3C//DTD SVG 20010904//EN"
 "http://www.w3.org/TR/2001/REC-SVG-20010904/DTD/svg10.dtd">
<svg version="1.0" xmlns="http://www.w3.org/2000/svg"
 width="87.000000pt" height="87.000000pt" viewBox="0 0 87.000000 87.000000"
 preserveAspectRatio="xMidYMid meet">
<metadata>
Created by potrace 1.11, written by Peter Selinger 2001-2013
</metadata>
<g transform="translate(0.000000,87.000000) scale(0.100000,-0.100000)"
fill="#000000" stroke="none">
<path d="M204 858 c-53 -24 -68 -112 -21 -123 22 -6 23 -9 13 -55 -8 -43 -7
-57 12 -103 l23 -54 -51 -189 c-27 -103 -50 -194 -50 -203 0 -8 -8 -24 -17
-35 -10 -12 -11 -15 -3 -8 14 12 39 18 27 6 -3 -4 0 -12 6 -19 15 -14 77 -25
77 -13 0 13 30 9 36 -5 6 -18 96 -15 118 3 38 32 56 54 56 68 0 9 6 12 16 8 8
-3 13 -2 10 3 -11 18 70 33 149 27 44 -2 88 -5 99 -6 10 -1 26 6 35 14 10 9
20 14 22 12 2 -2 5 24 7 59 5 110 -41 174 -92 126 -15 -15 -35 -21 -65 -21
l-43 0 66 70 c71 76 82 108 44 134 -27 19 -50 8 -98 -46 l-35 -39 -34 35 -34
35 17 41 c18 46 20 87 6 124 -8 21 -6 26 13 32 61 18 68 61 16 107 -37 34 -69
32 -87 -6 -11 -22 -18 -26 -35 -21 -12 3 -27 11 -34 16 -7 5 -17 7 -23 3 -5
-3 -10 -1 -10 4 0 6 -9 2 -20 -9 -26 -26 -34 -25 -50 4 -15 29 -37 36 -66 24z"/>
<path d="M636 152 c-3 -5 1 -9 9 -9 8 0 12 4 9 9 -3 4 -7 8 -9 8 -2 0 -6 -4
-9 -8z"/>
<path d="M571 117 c-8 -10 -7 -14 2 -14 8 0 14 6 14 14 0 7 -1 13 -2 13 -2 0
-8 -6 -14 -13z"/>
<path d="M649 113 c-13 -16 -12 -17 4 -4 16 13 21 21 13 21 -2 0 -10 -8 -17
-17z"/>
<path d="M426 70 c5 -8 9 -18 9 -22 0 -3 3 -9 7 -13 3 -4 5 0 4 9 -1 9 -8 22
-16 29 -10 10 -11 9 -4 -3z"/>
<path d="M391 57 c-8 -10 -7 -14 2 -14 8 0 14 6 14 14 0 7 -1 13 -2 13 -2 0
-8 -6 -14 -13z"/>
</g>
</svg>
