<?xml version="1.0" encoding="utf-8"?>
<!-- Generator: Adobe Illustrator 16.0.0, SVG Export Plug-In . SVG Version: 6.00 Build 0)  -->
<!DOCTYPE svg PUBLIC "-//W3C//DTD SVG 1.1//EN" "http://www.w3.org/Graphics/SVG/1.1/DTD/svg11.dtd">
<svg version="1.1" id="Layer_1" xmlns:sketch="http://www.bohemiancoding.com/sketch/ns"
	 xmlns="http://www.w3.org/2000/svg" xmlns:xlink="http://www.w3.org/1999/xlink" x="0px" y="0px" width="262px" height="175.667px"
	 viewBox="-6.667 -69.667 262 175.667" enable-background="new -6.667 -69.667 262 175.667" xml:space="preserve">
<title>Nalle</title>
<desc>Created with Sketch.</desc>
<g id="Page-1" sketch:type="MSPage">
	<g id="_x2D_Nalle" transform="translate(-9.000000, -11.000000)" sketch:type="MSLayerGroup">
		<path id="Fill-1" sketch:type="MSShapeGroup" fill="#A87C4F" d="M60.219,75.414h13.947c0,0,2.209-5.346,5.416-5.346
			c5.97,0,8.179,9.511,8.179,13.452c0,10.514-1.657,14.384-6.979,14.75c-1.363,0.095-5.322-1.286-5.322-1.286l-19.646-0.106"/>
		<path id="Fill-2" sketch:type="MSShapeGroup" fill="#956E45" d="M22.736,50.976c0,0-12.831,38.409-13.007,51.92
			c-0.07,5.333,3.02,6.607,4.923,7.186c1.856,0.566,6.086,1.475,8.084-3.139c4.042-9.369,15.827-48.12,15.827-48.12L22.736,50.976"
			/>
		<path id="Fill-3" sketch:type="MSShapeGroup" fill="#956E45" d="M51.406,50.964l-5.276,4.531c0,0,9.682,21.583,12.854,22.502
			c2.434,0.708,15.299-11.646,18.707-18.691c1.057-2.171,3.148-7.021-0.764-9.192c-2.938-1.628-5.123-0.767-6.428,0.035
			c-3.184,1.971-9.729,11.446-9.729,11.446L51.406,50.964"/>
		<path id="Fill-4" sketch:type="MSShapeGroup" fill="#8E6A46" d="M26.708,56.333c0,0,7.661,4.354,12.373,3.41
			c2.15-0.448,6.697-4.826,6.697-4.826s16.227,20.827,16.144,28.722c-0.07,4.731-5.428,14.101-9.505,16.06
			c-5.64,2.69-24.757,0-24.757,0L26.708,56.333"/>
		<path id="Fill-5" sketch:type="MSShapeGroup" fill="#B48B5F" d="M26.59,58.209c0,0,7.532,4.083,12.161,3.198
			C40.867,60.982,47,57.855,47,57.855s14.276,18.62,14.182,26.031c-0.07,4.472-5.322,13.286-9.341,15.127
			c-5.546,2.525-24.322,0-24.322,0L26.59,58.209"/>
		<path id="Fill-6" sketch:type="MSShapeGroup" fill="#A87C4F" d="M48.104,95.179c0,8.933-7.085,16.189-15.792,16.189
			s-15.792-7.257-15.792-16.189s7.085-16.189,15.792-16.189S48.104,86.246,48.104,95.179"/>
		<path id="Fill-7" sketch:type="MSShapeGroup" fill="#A87C4F" d="M55.812,39.271c0,13.275-11.891,21.205-18.882,21.205
			s-19.669-6.82-19.669-21.205c0-13.275,12.291-22.302,19.27-22.302C43.534,16.968,55.812,23.6,55.812,39.271"/>
		<path id="Fill-8" sketch:type="MSShapeGroup" fill="#A87C4F" d="M46.13,20.296c0,0,3.09-7.658,5.463-8.496
			c1.904-0.672,5.875,1.947,7.344,3.316c1.41,1.322,4.148,4.956,3.666,6.82c-0.717,2.809-9.023,7.21-9.023,7.21"/>
		<path id="Fill-9" sketch:type="MSShapeGroup" fill="#A87C4F" d="M21.479,28.745c0,0-7.896-2.336-8.965-4.625
			c-0.846-1.841,1.352-6.065,2.585-7.658c1.164-1.534,4.512-4.637,6.404-4.342c2.855,0.448,8.025,8.342,8.025,8.342"/>
		<path id="Fill-10" sketch:type="MSShapeGroup" fill="#82603B" d="M22.219,25.996c0,0-4.289-1.263-4.864-2.502
			c-0.458-1.003,0.74-3.304,1.41-4.166c0.623-0.837,2.444-2.513,3.466-2.348c1.551,0.236,4.359,4.519,4.359,4.519"/>
		<path id="Fill-11" sketch:type="MSShapeGroup" fill="#82603B" d="M48.88,20.803c0,0,1.892-4.731,3.337-5.251
			c1.176-0.413,3.596,1.192,4.5,2.053c0.847,0.814,2.539,3.068,2.244,4.213c-0.445,1.734-5.533,4.46-5.533,4.46"/>
		<path id="Fill-12" sketch:type="MSShapeGroup" fill="#B48A5F" d="M45.719,49.041c0,4.743-3.831,8.578-8.542,8.578
			c-4.7,0-8.53-3.835-8.53-8.578c0-4.732,3.831-8.567,8.53-8.567C41.889,40.474,45.719,44.309,45.719,49.041"/>
		<path id="Fill-13" sketch:type="MSShapeGroup" fill="#362217" d="M31.584,41.3c-0.012-2.218,4.019-2.194,5.499-2.207
			c2.209-0.023,5.699-0.023,5.699,2.207c-0.012,1.735-3.877,4.06-5.605,4.06C35.45,45.359,31.584,43.035,31.584,41.3"/>
		<path id="Stroke-14" sketch:type="MSShapeGroup" fill="none" stroke="#362217" stroke-width="0.1" d="M37.177,45.359v7.375
			 M32.865,50.976c0,0-0.458,2.195,4.112,2.195c5.064,0,4.512-2.195,4.512-2.195"/>
		<path id="Fill-15" sketch:type="MSShapeGroup" d="M44.062,30.656c0.047,1.487-0.775,2.714-1.833,2.761
			c-1.069,0.024-1.974-1.145-2.021-2.643c-0.047-1.487,0.775-2.714,1.833-2.75C43.099,27.99,44.016,29.169,44.062,30.656"/>
		<path id="Fill-16" sketch:type="MSShapeGroup" d="M33.464,31.152c-0.341,1.463-1.457,2.431-2.491,2.195
			c-1.022-0.248-1.61-1.628-1.281-3.068c0.341-1.452,1.457-2.431,2.491-2.183C33.206,28.332,33.793,29.712,33.464,31.152"/>
		<path id="Fill-17" sketch:type="MSShapeGroup" fill="#FFFFFF" d="M42.053,29.547c0.023,0.354-0.188,0.649-0.446,0.661
			c-0.259,0-0.482-0.271-0.494-0.637c-0.012-0.342,0.188-0.637,0.446-0.649C41.83,28.91,42.053,29.193,42.053,29.547"/>
		<path id="Fill-18" sketch:type="MSShapeGroup" fill="#FFFFFF" d="M32.536,29.347c-0.07,0.318-0.329,0.519-0.576,0.46
			c-0.247-0.059-0.388-0.354-0.329-0.672c0.083-0.307,0.341-0.519,0.587-0.46C32.465,28.733,32.606,29.028,32.536,29.347"/>
		<path id="Fill-19" sketch:type="MSShapeGroup" fill="#82603C" d="M37.459,101.586c0,3.576-2.632,6.455-5.875,6.455
			c-3.255,0-5.887-2.879-5.887-6.455c0-3.563,2.632-6.454,5.887-6.454C34.827,95.132,37.459,98.022,37.459,101.586"/>
		<path id="Fill-20" sketch:type="MSShapeGroup" fill="#82603C" d="M43.51,90.896c0,1.829-1.48,3.315-3.302,3.315
			s-3.302-1.486-3.302-3.315s1.48-3.315,3.302-3.315S43.51,89.066,43.51,90.896"/>
		<path id="Fill-21" sketch:type="MSShapeGroup" fill="#82603C" d="M35.309,85.738c0,1.522-1.233,2.762-2.75,2.762
			c-1.516,0-2.75-1.239-2.75-2.762c0-1.521,1.234-2.772,2.75-2.772C34.075,82.966,35.309,84.217,35.309,85.738"/>
		<path id="Fill-22" sketch:type="MSShapeGroup" fill="#82603C" d="M26.625,90.896c0,1.829-1.48,3.315-3.313,3.315
			c-1.821,0-3.302-1.486-3.302-3.315s1.48-3.315,3.302-3.315C25.145,87.58,26.625,89.066,26.625,90.896"/>
		<path id="Fill-23" sketch:type="MSShapeGroup" fill="#82603C" d="M83.354,89.975c0,3.352-1.151,6.09-2.573,6.09
			s-2.573-2.738-2.573-6.09c0-3.351,1.151-6.088,2.573-6.088S83.354,86.624,83.354,89.975"/>
		<path id="Fill-24" sketch:type="MSShapeGroup" fill="#82603C" d="M78.208,79.922c0,1.18-0.646,2.123-1.469,2.123
			c-0.811,0-1.469-0.943-1.469-2.123c0-1.169,0.658-2.113,1.469-2.113C77.562,77.809,78.208,78.753,78.208,79.922"/>
		<path id="Fill-25" sketch:type="MSShapeGroup" fill="#82603C" d="M82.25,75.686c0,1.18-0.658,2.123-1.469,2.123
			s-1.469-0.943-1.469-2.123c0-1.168,0.658-2.125,1.469-2.125S82.25,74.518,82.25,75.686"/>
		<path id="Fill-26" sketch:type="MSShapeGroup" fill="#82603C" d="M85.916,79.922c0,1.18-0.482,2.123-1.093,2.123
			c-0.622,0-1.104-0.943-1.104-2.123c0-1.169,0.482-2.113,1.104-2.113C85.434,77.809,85.916,78.753,85.916,79.922"/>
	</g>
</g>
<polygon fill="#A81B1B" points="21.806,55.886 21.363,49.893 29.742,52.069 "/>
<polygon fill="#A81B1B" points="37.324,54.493 36.881,48.5 28.912,51.884 "/>
<rect x="28.133" y="51.252" transform="matrix(0.9973 -0.074 0.074 0.9973 -3.7647 2.3101)" fill="#DB6565" width="2.309" height="1.398"/>
<circle fill="#DB6565" cx="22.743" cy="51.699" r="0.455"/>
<circle fill="#DB6565" cx="25.381" cy="53.223" r="0.455"/>
<circle fill="#DB6565" cx="36.236" cy="49.614" r="0.385"/>
<circle fill="#DB6565" cx="36.03" cy="52.997" r="0.63"/>
<circle fill="#DB6565" cx="34.517" cy="51.039" r="0.35"/>
<circle fill="#DB6565" cx="31.966" cy="51.649" r="0.735"/>
<circle fill="#DB6565" cx="22.32" cy="53.099" r="0.42"/>
<ellipse transform="matrix(0.9973 -0.0729 0.0729 0.9973 -3.8679 1.8389)" fill="#DB6565" cx="23.257" cy="53.906" rx="0.315" ry="0.001"/>
<circle fill="#DB6565" cx="24.138" cy="52.543" r="0.385"/>
<path fill="none" stroke="#FFFFFF" stroke-miterlimit="10" d="M55.999,25.665L85-9.5c0,0-41.847-13.852-24-32.5
	c22.332-23.335,114.324-27.009,154.25-13C258-40,241-0.75,171,0.25c-44.996,0.643-77-5-77-5L55.999,25.665z"/>
<text transform="matrix(1 0 0 1 86.5 -40.75)"><tspan x="0" y="0" fill="#FFFFFF" font-family="'Quicksand-Regular'" font-size="8">ID, ja de e vi de, ja det är vi som </tspan><tspan x="0" y="9.6" fill="#FFFFFF" font-family="'Quicksand-Regular'" font-size="8">är det vi är ID, </tspan><tspan x="0" y="19.2" fill="#FFFFFF" font-family="'Quicksand-Regular'" font-size="8">RESTEN, KAN HÅLLA KÄFTEN!</tspan></text>
<ellipse transform="matrix(0.9422 -0.3352 0.3352 0.9422 19.8498 72.9963)" fill="#FFFFFF" stroke="#FFFFFF" stroke-miterlimit="10" cx="221.424" cy="-21.014" rx="2.912" ry="1.801"/>
<ellipse transform="matrix(0.9422 -0.3351 0.3351 0.9422 19.7534 70.4686)" fill="#FFFFFF" stroke="#FFFFFF" stroke-miterlimit="10" cx="214.066" cy="-22.003" rx="2.911" ry="1.803"/>
<line fill="#FFFFFF" stroke="#FFFFFF" stroke-miterlimit="10" x1="216.026" y1="-23.478" x2="217.442" y2="-31.25"/>
<line fill="#FFFFFF" stroke="#FFFFFF" stroke-miterlimit="10" x1="216.928" y1="-31.132" x2="225.041" y2="-29.653"/>
<line fill="#FFFFFF" stroke="#FFFFFF" stroke-miterlimit="10" x1="224.533" y1="-29.958" x2="223.153" y2="-22.39"/>
</svg>
